<svg id="visual" viewBox="0 0 1000 824" width="1000" height="824" xmlns="http://www.w3.org/2000/svg" xmlns:xlink="http://www.w3.org/1999/xlink" version="1.1"><rect x="0" y="0" width="1000" height="824" fill="#140021"></rect><path d="M0 570L91 570L91 505L182 505L182 573L273 573L273 535L364 535L364 542L455 542L455 554L545 554L545 444L636 444L636 514L727 514L727 486L818 486L818 517L909 517L909 584L1000 584L1000 512L1000 825L1000 825L909 825L909 825L818 825L818 825L727 825L727 825L636 825L636 825L545 825L545 825L455 825L455 825L364 825L364 825L273 825L273 825L182 825L182 825L91 825L91 825L0 825Z" fill="#9900ff"></path><path d="M0 633L91 633L91 580L182 580L182 637L273 637L273 602L364 602L364 624L455 624L455 622L545 622L545 640L636 640L636 548L727 548L727 669L818 669L818 668L909 668L909 678L1000 678L1000 564L1000 825L1000 825L909 825L909 825L818 825L818 825L727 825L727 825L636 825L636 825L545 825L545 825L455 825L455 825L364 825L364 825L273 825L273 825L182 825L182 825L91 825L91 825L0 825Z" fill="#7700c6"></path><path d="M0 763L91 763L91 648L182 648L182 676L273 676L273 771L364 771L364 659L455 659L455 682L545 682L545 652L636 652L636 683L727 683L727 715L818 715L818 703L909 703L909 778L1000 778L1000 660L1000 825L1000 825L909 825L909 825L818 825L818 825L727 825L727 825L636 825L636 825L545 825L545 825L455 825L455 825L364 825L364 825L273 825L273 825L182 825L182 825L91 825L91 825L0 825Z" fill="#560090"></path></svg>